<?xml version="1.0" encoding="UTF-8"?>
<svg xmlns="http://www.w3.org/2000/svg" xmlns:xlink="http://www.w3.org/1999/xlink" width="305pt" height="67.78pt" viewBox="0 0 305 67.78" version="1.1">
<defs>
<clipPath id="clip1">
  <path d="M 0 19 L 261 19 L 261 67.78125 L 0 67.78125 Z M 0 19 "/>
</clipPath>
</defs>
<g id="surface1">
<g clip-path="url(#clip1)" clip-rule="nonzero">
<path style=" stroke:none;fill-rule:nonzero;fill:rgb(28.999329%,31.799316%,32.499695%);fill-opacity:1;" d="M 244.015625 51.511719 C 247.066406 50.609375 250.808594 50.566406 253.265625 50.566406 L 253.996094 50.566406 L 253.996094 50.902344 C 253.996094 53.6875 253.027344 56.667969 251.253906 58.828125 C 249.773438 60.621094 247.722656 61.835938 245.195313 61.835938 C 243.246094 61.835938 241.765625 61.269531 240.746094 60.40625 C 239.613281 59.449219 239.039063 58.113281 239.039063 56.808594 C 239.039063 53.867188 241.257813 52.324219 244.015625 51.511719 Z M 235.722656 64.785156 C 238.03125 66.769531 241.230469 67.78125 244.417969 67.78125 C 247.136719 67.78125 249.570313 66.953125 251.574219 65.628906 C 252.554688 64.980469 253.429688 64.210938 254.1875 63.359375 L 254.1875 67.007813 L 260.667969 67.007813 L 260.667969 45.183594 C 260.667969 40.84375 259.480469 37.484375 257.222656 35.175781 C 254.941406 32.847656 251.625 31.644531 247.390625 31.644531 C 245.125 31.644531 242.785156 32.035156 240.664063 32.710938 C 238.503906 33.398438 236.566406 34.390625 235.160156 35.578125 L 234.421875 36.203125 L 234.917969 37.03125 L 236.921875 40.375 L 237.5625 41.441406 L 238.566406 40.707031 C 239.8125 39.800781 241.214844 39.078125 242.695313 38.582031 C 244.121094 38.105469 245.625 37.847656 247.128906 37.847656 C 249.273438 37.847656 251.105469 38.347656 252.304688 39.597656 C 253.332031 40.671875 253.953125 42.351563 253.992188 44.8125 L 253.199219 44.8125 C 250.019531 44.8125 244.945313 44.980469 240.613281 46.527344 C 236.03125 48.160156 232.300781 51.277344 232.300781 57.195313 C 232.300781 60.464844 233.652344 63.003906 235.722656 64.785156 Z M 209.039063 67.007813 L 203.507813 67.007813 L 203.507813 19.570313 L 210.179688 19.570313 L 210.179688 44.75 L 213.714844 44.75 L 223.054688 32.855469 L 223.398438 32.417969 L 231.625 32.417969 L 230.132813 34.273438 L 219.316406 47.738281 L 231.34375 65.21875 L 232.574219 67.007813 L 224.507813 67.007813 L 224.167969 66.5 L 213.726563 50.886719 L 210.179688 50.886719 L 210.179688 67.007813 Z M 171.128906 41.230469 C 169.085938 43.316406 167.824219 46.226563 167.824219 49.550781 C 167.824219 52.992188 169.078125 55.964844 171.109375 58.078125 C 173.179688 60.234375 176.066406 61.511719 179.273438 61.511719 C 182.484375 61.511719 185.394531 60.230469 187.480469 58.070313 C 189.523438 55.953125 190.785156 52.988281 190.785156 49.550781 C 190.785156 46.234375 189.515625 43.324219 187.460938 41.238281 C 185.378906 39.121094 182.476563 37.847656 179.273438 37.847656 C 176.078125 37.847656 173.195313 39.121094 171.128906 41.230469 Z M 166.289063 62.496094 C 163.027344 59.238281 161.023438 54.710938 161.023438 49.550781 C 161.023438 44.480469 163.03125 40.03125 166.296875 36.832031 C 169.601563 33.59375 174.1875 31.644531 179.273438 31.644531 C 184.363281 31.644531 188.96875 33.597656 192.289063 36.835938 C 195.566406 40.039063 197.589844 44.484375 197.589844 49.550781 C 197.589844 54.707031 195.570313 59.230469 192.300781 62.488281 C 188.980469 65.792969 184.367188 67.78125 179.273438 67.78125 C 174.183594 67.78125 169.59375 65.796875 166.289063 62.496094 Z M 150.574219 65.75 C 148.761719 64.464844 147.335938 62.199219 147.335938 58.222656 L 147.335938 19.570313 L 154.011719 19.570313 L 154.011719 57.257813 C 154.011719 59.023438 154.367188 59.980469 154.871094 60.472656 C 155.3125 60.898438 155.949219 61 156.546875 61 C 156.699219 61 156.886719 61 156.96875 60.996094 C 157.101563 60.988281 157.25 60.976563 157.398438 60.953125 L 158.722656 60.734375 L 158.722656 66.960938 L 157.765625 67.117188 C 157.558594 67.152344 157.3125 67.1875 156.996094 67.214844 C 156.671875 67.246094 156.324219 67.265625 155.96875 67.265625 C 154.480469 67.265625 152.367188 67.023438 150.574219 65.75 Z M 119.855469 39.980469 C 118.433594 41.257813 117.339844 43.03125 116.757813 45.261719 L 134.527344 45.261719 C 134.253906 42.941406 133.4375 41.160156 132.273438 39.898438 C 130.808594 38.308594 128.757813 37.527344 126.523438 37.527344 C 124 37.527344 121.652344 38.367188 119.855469 39.980469 Z M 114.582031 62.648438 C 111.371094 59.464844 109.4375 54.992188 109.4375 49.746094 C 109.4375 44.3125 111.261719 39.914063 114.207031 36.804688 C 117.367188 33.46875 121.804688 31.644531 126.652344 31.644531 C 131.261719 31.644531 134.816406 33.335938 137.285156 36.050781 C 139.988281 39.023438 141.355469 43.195313 141.355469 47.6875 C 141.355469 48.042969 141.335938 48.441406 141.3125 48.851563 C 141.289063 49.164063 141.253906 49.570313 141.21875 49.976563 L 141.121094 51.015625 L 116.367188 51.015625 C 116.664063 54.089844 117.828125 56.535156 119.550781 58.28125 C 121.636719 60.398438 124.5625 61.511719 127.753906 61.511719 C 129.375 61.511719 131.023438 61.175781 132.574219 60.574219 C 134.160156 59.953125 135.636719 59.058594 136.867188 57.953125 L 137.894531 57.03125 L 138.605469 58.214844 L 141.089844 62.355469 L 140.398438 62.984375 C 138.78125 64.453125 136.726563 65.652344 134.515625 66.480469 C 132.285156 67.3125 129.894531 67.777344 127.621094 67.777344 C 122.429688 67.78125 117.851563 65.890625 114.582031 62.648438 Z M 94.4375 67.007813 L 88.882813 67.007813 L 88.597656 66.277344 L 76.074219 33.96875 L 75.46875 32.417969 L 82.632813 32.417969 L 82.914063 33.15625 L 91.886719 56.859375 L 91.890625 56.871094 C 91.933594 56.984375 91.972656 57.105469 92.015625 57.226563 C 92.054688 57.105469 92.097656 56.984375 92.140625 56.871094 L 92.144531 56.859375 L 101.117188 33.15625 L 101.398438 32.417969 L 108.492188 32.417969 L 107.898438 33.964844 L 95.503906 66.273438 L 95.21875 67.007813 Z M 55.679688 51.511719 C 52.921875 52.324219 50.707031 53.867188 50.707031 56.808594 C 50.707031 58.113281 51.28125 59.449219 52.414063 60.40625 C 53.429688 61.265625 54.910156 61.835938 56.859375 61.835938 C 59.390625 61.835938 61.441406 60.621094 62.917969 58.828125 C 64.695313 56.667969 65.660156 53.6875 65.660156 50.902344 L 65.660156 50.566406 L 64.929688 50.566406 C 62.476563 50.566406 58.734375 50.609375 55.679688 51.511719 Z M 47.390625 64.785156 C 45.320313 63.003906 43.96875 60.464844 43.96875 57.195313 C 43.96875 51.277344 47.699219 48.160156 52.28125 46.527344 C 56.613281 44.980469 61.6875 44.8125 64.867188 44.8125 L 65.660156 44.8125 C 65.621094 42.351563 65 40.671875 63.96875 39.597656 C 62.769531 38.347656 60.941406 37.847656 58.796875 37.847656 C 57.289063 37.847656 55.789063 38.105469 54.363281 38.582031 C 52.882813 39.078125 51.476563 39.800781 50.234375 40.707031 L 49.226563 41.441406 L 48.589844 40.371094 L 46.585938 37.03125 L 46.089844 36.203125 L 46.828125 35.578125 C 48.234375 34.386719 50.171875 33.398438 52.332031 32.707031 C 54.453125 32.035156 56.792969 31.644531 59.054688 31.644531 C 63.292969 31.644531 66.609375 32.84375 68.886719 35.175781 C 71.148438 37.484375 72.335938 40.84375 72.335938 45.183594 L 72.335938 67.007813 L 65.855469 67.007813 L 65.855469 63.359375 C 65.097656 64.210938 64.21875 64.980469 63.242188 65.628906 C 61.234375 66.953125 58.800781 67.777344 56.085938 67.777344 C 52.898438 67.78125 49.699219 66.769531 47.390625 64.785156 Z M 29.613281 67.007813 L 24.082031 67.007813 L 24.082031 32.417969 L 30.691406 32.417969 L 30.691406 37.101563 C 31.332031 36.21875 32.058594 35.421875 32.863281 34.734375 C 34.785156 33.097656 37.136719 32.09375 39.816406 32.09375 C 40.144531 32.09375 40.5 32.113281 40.859375 32.15625 C 41.195313 32.191406 41.527344 32.246094 41.832031 32.324219 L 42.703125 32.539063 L 42.703125 39.3125 L 41.203125 38.816406 C 41.1875 38.8125 41.039063 38.796875 40.820313 38.78125 C 40.558594 38.761719 40.238281 38.746094 39.945313 38.746094 C 37.125 38.746094 35.027344 40.160156 33.566406 42.226563 L 33.5625 42.226563 C 31.628906 44.960938 30.757813 48.8125 30.757813 52.183594 L 30.757813 67.007813 Z M 9.03125 65.101563 C 6.386719 63.257813 4.261719 59.960938 4.261719 54.113281 L 4.261719 38.617188 L 0 38.617188 L 0 32.671875 L 4.324219 32.671875 L 4.324219 23.488281 L 10.933594 23.488281 L 10.933594 32.671875 L 19.136719 32.671875 L 19.136719 38.617188 L 10.933594 38.617188 L 10.933594 53.660156 C 10.933594 56.378906 11.601563 58.105469 12.539063 59.195313 C 13.890625 60.761719 15.871094 61.0625 17.15625 61.0625 C 17.375 61.0625 17.597656 61.0625 17.773438 61.050781 L 17.777344 61.050781 C 17.972656 61.039063 18.175781 61.011719 18.394531 60.964844 L 19.78125 60.660156 L 19.78125 66.960938 L 18.824219 67.117188 C 18.574219 67.160156 18.242188 67.199219 17.851563 67.226563 C 17.519531 67.25 17.152344 67.265625 16.765625 67.265625 C 14.738281 67.265625 11.652344 66.925781 9.03125 65.101563 "/>
</g>
<path style=" stroke:none;fill-rule:nonzero;fill:rgb(0%,64.698792%,87.098694%);fill-opacity:1;" d="M 285.949219 35.792969 C 285.988281 35.769531 286.027344 35.746094 286.066406 35.722656 C 284.324219 30.519531 291.566406 21.726563 305 7.019531 C 294.140625 8.351563 285.738281 11.109375 279.796875 15.289063 C 280.375 23.8125 282.425781 30.648438 285.949219 35.792969 "/>
<path style=" stroke:none;fill-rule:nonzero;fill:rgb(0%,56.498718%,76.098633%);fill-opacity:1;" d="M 285.949219 35.792969 C 285.988281 35.769531 286.027344 35.746094 286.066406 35.722656 C 286.007813 35.546875 285.960938 35.367188 285.921875 35.183594 C 284.226563 28.738281 283.539063 21.292969 283.859375 12.847656 C 282.398438 13.601563 281.042969 14.414063 279.796875 15.289063 C 280.375 23.8125 282.425781 30.648438 285.949219 35.792969 "/>
<path style=" stroke:none;fill-rule:nonzero;fill:rgb(0%,65.098572%,89.7995%);fill-opacity:1;" d="M 290.421875 43.253906 C 293.289063 44.722656 295.667969 45.480469 297.773438 45.117188 C 283.617188 39.566406 277.742188 24.527344 280.148438 -0.00390625 C 275.0625 0.996094 270.9375 3.320313 268.0625 7.195313 C 265.558594 10.574219 266.363281 14.863281 268.414063 20.59375 C 268.691406 21.359375 269.019531 25.5 267.308594 27.039063 C 266.675781 27.601563 265.664063 27.15625 264.789063 26.585938 C 261.78125 24.875 259.277344 24.890625 257.285156 26.636719 C 251.792969 25.710938 247.816406 25.210938 245.351563 25.125 C 248.867188 26.230469 252.929688 27.371094 257.488281 28.699219 C 259.4375 29.265625 261.105469 30.605469 262.421875 32.628906 C 265.117188 36.769531 272.753906 39.015625 280.148438 40.082031 C 282.921875 40.480469 286.761719 41.378906 290.421875 43.253906 "/>
</g>
</svg>
